<mxfile host="app.diagrams.net" modified="2023-06-18T14:59:34.387Z" agent="Mozilla/5.0 (X11; Linux x86_64) AppleWebKit/537.36 (KHTML, like Gecko) Chrome/114.0.0.0 Safari/537.36" etag="4dmTxDsKEiE5frTG7UpX" version="21.5.0" type="device">
  <diagram id="o9o63VUR0yWwn2cFP-Nq" name="PÃ¡gina-1">
    <mxGraphModel dx="2261" dy="802" grid="1" gridSize="10" guides="1" tooltips="1" connect="1" arrows="1" fold="1" page="1" pageScale="1" pageWidth="827" pageHeight="1169" math="0" shadow="0">
      <root>
        <mxCell id="0" />
        <mxCell id="1" parent="0" />
        <mxCell id="_pv9cBTpjuBLubeDEb2t-10" style="edgeStyle=orthogonalEdgeStyle;rounded=0;orthogonalLoop=1;jettySize=auto;html=1;exitX=0.5;exitY=1;exitDx=0;exitDy=0;entryX=0.5;entryY=0;entryDx=0;entryDy=0;" parent="1" source="_pv9cBTpjuBLubeDEb2t-2" target="_pv9cBTpjuBLubeDEb2t-8" edge="1">
          <mxGeometry relative="1" as="geometry" />
        </mxCell>
        <mxCell id="_pv9cBTpjuBLubeDEb2t-2" value="&lt;font style=&quot;font-size: 14px;&quot;&gt;Service payment&lt;/font&gt;" style="label;whiteSpace=wrap;html=1;image=img/clipart/Gear_128x128.png" parent="1" vertex="1">
          <mxGeometry x="90" y="320" width="140" height="60" as="geometry" />
        </mxCell>
        <mxCell id="_pv9cBTpjuBLubeDEb2t-5" value="" style="edgeStyle=orthogonalEdgeStyle;rounded=0;orthogonalLoop=1;jettySize=auto;html=1;entryX=0;entryY=0.5;entryDx=0;entryDy=0;" parent="1" source="_pv9cBTpjuBLubeDEb2t-3" target="_pv9cBTpjuBLubeDEb2t-2" edge="1">
          <mxGeometry relative="1" as="geometry">
            <mxPoint x="50" y="350" as="targetPoint" />
          </mxGeometry>
        </mxCell>
        <mxCell id="_pv9cBTpjuBLubeDEb2t-3" value="&lt;b&gt;&lt;font style=&quot;font-size: 14px;&quot;&gt;Application&amp;nbsp;App&amp;nbsp;&lt;/font&gt;&lt;/b&gt;" style="shape=ext;double=1;rounded=1;whiteSpace=wrap;html=1;" parent="1" vertex="1">
          <mxGeometry x="-230" y="310" width="130" height="80" as="geometry" />
        </mxCell>
        <mxCell id="_pv9cBTpjuBLubeDEb2t-6" value="Process transaction" style="text;strokeColor=none;fillColor=none;html=1;fontSize=14;fontStyle=1;verticalAlign=middle;align=center;" parent="1" vertex="1">
          <mxGeometry x="-66" y="310" width="100" height="40" as="geometry" />
        </mxCell>
        <mxCell id="_pv9cBTpjuBLubeDEb2t-7" value="&lt;ul style=&quot;font-size: 14px;&quot;&gt;&lt;li style=&quot;font-size: 14px;&quot;&gt;Process payments&lt;/li&gt;&lt;li style=&quot;font-size: 14px;&quot;&gt;Update status transaction&lt;/li&gt;&lt;/ul&gt;" style="text;strokeColor=none;fillColor=none;html=1;whiteSpace=wrap;verticalAlign=middle;overflow=hidden;fontSize=14;" parent="1" vertex="1">
          <mxGeometry x="220" y="310" width="220" height="80" as="geometry" />
        </mxCell>
        <mxCell id="_pv9cBTpjuBLubeDEb2t-11" style="edgeStyle=orthogonalEdgeStyle;rounded=0;orthogonalLoop=1;jettySize=auto;html=1;exitX=0;exitY=0.5;exitDx=0;exitDy=0;entryX=0.5;entryY=1;entryDx=0;entryDy=0;" parent="1" source="_pv9cBTpjuBLubeDEb2t-8" target="_pv9cBTpjuBLubeDEb2t-3" edge="1">
          <mxGeometry relative="1" as="geometry" />
        </mxCell>
        <mxCell id="_pv9cBTpjuBLubeDEb2t-8" value="&lt;font style=&quot;font-size: 14px;&quot;&gt;Service notification&lt;/font&gt;" style="label;whiteSpace=wrap;html=1;image=img/clipart/Gear_128x128.png" parent="1" vertex="1">
          <mxGeometry x="90" y="450" width="140" height="60" as="geometry" />
        </mxCell>
        <mxCell id="_pv9cBTpjuBLubeDEb2t-9" value="&lt;ul style=&quot;font-size: 14px;&quot;&gt;&lt;li style=&quot;border-color: var(--border-color); font-size: 14px;&quot;&gt;Send e-mail to the payee&lt;/li&gt;&lt;/ul&gt;" style="text;strokeColor=none;fillColor=none;html=1;whiteSpace=wrap;verticalAlign=middle;overflow=hidden;fontSize=14;" parent="1" vertex="1">
          <mxGeometry x="220" y="440" width="200" height="80" as="geometry" />
        </mxCell>
        <mxCell id="_pv9cBTpjuBLubeDEb2t-12" value="Send infos" style="text;strokeColor=none;fillColor=none;html=1;fontSize=14;fontStyle=1;verticalAlign=middle;align=center;" parent="1" vertex="1">
          <mxGeometry x="-66" y="440" width="100" height="40" as="geometry" />
        </mxCell>
        <mxCell id="_pv9cBTpjuBLubeDEb2t-13" value="&lt;ul style=&quot;font-size: 14px;&quot;&gt;&lt;li style=&quot;border-color: var(--border-color);&quot;&gt;Generate Users&lt;/li&gt;&lt;li style=&quot;border-color: var(--border-color);&quot;&gt;Generate Accounts&lt;/li&gt;&lt;li style=&quot;font-size: 14px;&quot;&gt;Generate Transactions&lt;/li&gt;&lt;li style=&quot;font-size: 14px;&quot;&gt;Generate Reports&lt;/li&gt;&lt;/ul&gt;" style="text;strokeColor=none;fillColor=none;html=1;whiteSpace=wrap;verticalAlign=middle;overflow=hidden;fontSize=14;" parent="1" vertex="1">
          <mxGeometry x="-430" y="310" width="200" height="100" as="geometry" />
        </mxCell>
      </root>
    </mxGraphModel>
  </diagram>
</mxfile>
